<mxfile host="Electron" modified="2023-04-15T05:45:40.443Z" agent="Mozilla/5.0 (Macintosh; Intel Mac OS X 10_15_7) AppleWebKit/537.36 (KHTML, like Gecko) draw.io/21.1.2 Chrome/106.0.5249.199 Electron/21.4.3 Safari/537.36" etag="WTtIstrjBslJRP4_SeKv" version="21.1.2" type="device">
  <diagram name="第 1 页" id="W4PznRmGQDPAgO9PZRKu">
    <mxGraphModel dx="1114" dy="819" grid="1" gridSize="10" guides="1" tooltips="1" connect="1" arrows="1" fold="1" page="1" pageScale="1" pageWidth="827" pageHeight="1169" math="0" shadow="0">
      <root>
        <mxCell id="0" />
        <mxCell id="1" parent="0" />
        <mxCell id="fq4FRoA-I-p3slPCN7D7-1" value="&lt;font style=&quot;font-size: 25px;&quot;&gt;&lt;b&gt;Guest&lt;/b&gt;&lt;/font&gt;" style="rounded=0;whiteSpace=wrap;html=1;dashed=1;" vertex="1" parent="1">
          <mxGeometry x="40" y="260" width="220" height="180" as="geometry" />
        </mxCell>
        <mxCell id="fq4FRoA-I-p3slPCN7D7-2" value="" style="rounded=0;whiteSpace=wrap;html=1;dashed=1;" vertex="1" parent="1">
          <mxGeometry x="350" y="190" width="700" height="400" as="geometry" />
        </mxCell>
        <mxCell id="fq4FRoA-I-p3slPCN7D7-3" value="&lt;font style=&quot;font-size: 25px;&quot;&gt;&lt;b&gt;Hypervisor&lt;/b&gt;&lt;/font&gt;" style="text;html=1;strokeColor=none;fillColor=none;align=center;verticalAlign=middle;whiteSpace=wrap;rounded=0;" vertex="1" parent="1">
          <mxGeometry x="630" y="220" width="180" height="50" as="geometry" />
        </mxCell>
        <mxCell id="fq4FRoA-I-p3slPCN7D7-5" value="" style="endArrow=classic;html=1;rounded=0;entryX=0;entryY=0.25;entryDx=0;entryDy=0;exitX=1.011;exitY=0.444;exitDx=0;exitDy=0;exitPerimeter=0;" edge="1" parent="1" source="fq4FRoA-I-p3slPCN7D7-27" target="fq4FRoA-I-p3slPCN7D7-7">
          <mxGeometry width="50" height="50" relative="1" as="geometry">
            <mxPoint x="259" y="360" as="sourcePoint" />
            <mxPoint x="310" y="310" as="targetPoint" />
          </mxGeometry>
        </mxCell>
        <mxCell id="fq4FRoA-I-p3slPCN7D7-6" value="&lt;font style=&quot;font-size: 20px;&quot;&gt;Trap&lt;/font&gt;" style="text;html=1;strokeColor=none;fillColor=none;align=center;verticalAlign=middle;whiteSpace=wrap;rounded=0;" vertex="1" parent="1">
          <mxGeometry x="270" y="300" width="60" height="30" as="geometry" />
        </mxCell>
        <mxCell id="fq4FRoA-I-p3slPCN7D7-7" value="&lt;font style=&quot;font-size: 20px;&quot;&gt;Context Switch&lt;/font&gt;" style="rounded=0;whiteSpace=wrap;html=1;" vertex="1" parent="1">
          <mxGeometry x="350" y="320" width="120" height="80" as="geometry" />
        </mxCell>
        <mxCell id="fq4FRoA-I-p3slPCN7D7-12" value="" style="rounded=0;whiteSpace=wrap;html=1;dashed=1;" vertex="1" parent="1">
          <mxGeometry x="580" y="280" width="380" height="220" as="geometry" />
        </mxCell>
        <mxCell id="fq4FRoA-I-p3slPCN7D7-15" value="&lt;font style=&quot;font-size: 20px;&quot;&gt;Trap handler&lt;/font&gt;" style="text;html=1;strokeColor=none;fillColor=none;align=center;verticalAlign=middle;whiteSpace=wrap;rounded=0;" vertex="1" parent="1">
          <mxGeometry x="640" y="290" width="160" height="30" as="geometry" />
        </mxCell>
        <mxCell id="fq4FRoA-I-p3slPCN7D7-16" value="&lt;font style=&quot;font-size: 15px;&quot;&gt;Privilege Instruction Emulate&lt;/font&gt;" style="rounded=0;whiteSpace=wrap;html=1;" vertex="1" parent="1">
          <mxGeometry x="630" y="330" width="130" height="70" as="geometry" />
        </mxCell>
        <mxCell id="fq4FRoA-I-p3slPCN7D7-17" value="&lt;font style=&quot;font-size: 15px;&quot;&gt;SBI Process&lt;/font&gt;" style="rounded=0;whiteSpace=wrap;html=1;" vertex="1" parent="1">
          <mxGeometry x="780" y="330" width="120" height="70" as="geometry" />
        </mxCell>
        <mxCell id="fq4FRoA-I-p3slPCN7D7-18" value="&lt;font style=&quot;font-size: 15px;&quot;&gt;Interrupt Inject&lt;/font&gt;" style="rounded=0;whiteSpace=wrap;html=1;" vertex="1" parent="1">
          <mxGeometry x="700" y="420" width="120" height="60" as="geometry" />
        </mxCell>
        <mxCell id="fq4FRoA-I-p3slPCN7D7-27" value="&lt;font style=&quot;font-size: 25px;&quot;&gt;&lt;b&gt;Guest&lt;/b&gt;&lt;/font&gt;" style="rounded=0;whiteSpace=wrap;html=1;dashed=1;" vertex="1" parent="1">
          <mxGeometry x="40" y="260" width="220" height="180" as="geometry" />
        </mxCell>
        <mxCell id="fq4FRoA-I-p3slPCN7D7-35" value="" style="endArrow=classic;html=1;rounded=0;entryX=0;entryY=0.5;entryDx=0;entryDy=0;" edge="1" parent="1" target="fq4FRoA-I-p3slPCN7D7-12">
          <mxGeometry width="50" height="50" relative="1" as="geometry">
            <mxPoint x="470" y="390" as="sourcePoint" />
            <mxPoint x="520" y="340" as="targetPoint" />
          </mxGeometry>
        </mxCell>
        <mxCell id="fq4FRoA-I-p3slPCN7D7-36" value="" style="endArrow=classic;html=1;rounded=0;entryX=1;entryY=0.5;entryDx=0;entryDy=0;" edge="1" parent="1" target="fq4FRoA-I-p3slPCN7D7-7">
          <mxGeometry width="50" height="50" relative="1" as="geometry">
            <mxPoint x="580" y="360" as="sourcePoint" />
            <mxPoint x="630" y="310" as="targetPoint" />
          </mxGeometry>
        </mxCell>
        <mxCell id="fq4FRoA-I-p3slPCN7D7-37" value="" style="endArrow=classic;html=1;rounded=0;exitX=0;exitY=0.75;exitDx=0;exitDy=0;entryX=0.993;entryY=0.672;entryDx=0;entryDy=0;entryPerimeter=0;" edge="1" parent="1" source="fq4FRoA-I-p3slPCN7D7-7" target="fq4FRoA-I-p3slPCN7D7-27">
          <mxGeometry width="50" height="50" relative="1" as="geometry">
            <mxPoint x="260" y="400" as="sourcePoint" />
            <mxPoint x="310" y="350" as="targetPoint" />
          </mxGeometry>
        </mxCell>
        <mxCell id="fq4FRoA-I-p3slPCN7D7-38" value="&lt;font style=&quot;font-size: 20px;&quot;&gt;Return&lt;/font&gt;" style="text;html=1;strokeColor=none;fillColor=none;align=center;verticalAlign=middle;whiteSpace=wrap;rounded=0;" vertex="1" parent="1">
          <mxGeometry x="270" y="390" width="60" height="30" as="geometry" />
        </mxCell>
      </root>
    </mxGraphModel>
  </diagram>
</mxfile>
